# xmcd
#
# Track frame offsets:
#	150
#	33336
#	48411
#	74812
#	99999
#	134813
#	172711
#
# Disc length: 2697 seconds
#
# Revision: 1
# Processed by: cddbd v1.5.2PL0 Copyright (c) Steve Scherf et al.
# Submitted via: audiograbber 1.83.01
#
DISCID=5f0a8707
DTITLE=Grateful Dead - 82-09-20 Madison Square Garden, New York NY
DYEAR=1900
DGENRE=
TTITLE0=Space
TTITLE1=Spanish Jam
TTITLE2=Truckin'
TTITLE3=The Other One
TTITLE4=Stella Blue
TTITLE5=Sugar Magnolia
TTITLE6=Touch Of Grey
EXTD=
EXTT0=
EXTT1=
EXTT2=
EXTT3=
EXTT4=
EXTT5=
EXTT6=
PLAYORDER=
